<?xml version="1.0" encoding="UTF-8"?>
<!DOCTYPE svg PUBLIC "-//W3C//DTD SVG 1.1//EN" "http://www.w3.org/Graphics/SVG/1.1/DTD/svg11.dtd">
<svg xmlns="http://www.w3.org/2000/svg" version="1.1" width="300px" height="274px" style="shape-rendering:geometricPrecision; text-rendering:geometricPrecision; image-rendering:optimizeQuality; fill-rule:evenodd; clip-rule:evenodd" xmlns:xlink="http://www.w3.org/1999/xlink">
<g><path style="opacity:1" fill="#fefefe" d="M -0.5,-0.5 C 99.5,-0.5 199.5,-0.5 299.5,-0.5C 299.5,90.8333 299.5,182.167 299.5,273.5C 199.5,273.5 99.5,273.5 -0.5,273.5C -0.5,182.167 -0.5,90.8333 -0.5,-0.5 Z"/></g>
<g><path style="opacity:1" fill="#555555" d="M 48.5,27.5 C 50.5273,27.3379 52.5273,27.5045 54.5,28C 61.3333,34.8333 68.1667,41.6667 75,48.5C 77.5,46 80,43.5 82.5,41C 84.7008,40.1751 86.5341,40.6751 88,42.5C 88.6667,54.8333 88.6667,67.1667 88,79.5C 87.5,80 87,80.5 86.5,81C 73.8333,81.6667 61.1667,81.6667 48.5,81C 46.7888,79.8668 46.2888,78.3668 47,76.5C 49.6833,73.9841 52.1833,71.3174 54.5,68.5C 47.848,61.3477 41.0147,54.3477 34,47.5C 33.3333,45.8333 33.3333,44.1667 34,42.5C 39.0365,37.6313 43.8698,32.6313 48.5,27.5 Z"/></g>
<g><path style="opacity:1" fill="#545454" d="M 240.5,27.5 C 242.199,27.3398 243.866,27.5065 245.5,28C 251.294,33.1174 256.294,38.7841 260.5,45C 254.287,53.2208 247.287,60.8875 239.5,68C 242,70.5 244.5,73 247,75.5C 247.667,77.1667 247.667,78.8333 247,80.5C 233.909,81.6554 220.742,81.822 207.5,81C 206.345,67.9086 206.178,54.742 207,41.5C 208.726,40.4238 210.559,40.2571 212.5,41C 215,43.5 217.5,46 220,48.5C 227.036,41.6315 233.869,34.6315 240.5,27.5 Z"/></g>
<g><path style="opacity:1" fill="#bababa" d="M 176.5,80.5 C 177.289,80.7828 177.956,81.2828 178.5,82C 168.172,82.4998 157.839,82.6665 147.5,82.5C 157.167,81.8333 166.833,81.1667 176.5,80.5 Z"/></g>
<g><path style="opacity:1" fill="#565656" d="M 86.5,113.5 C 96.1724,113.334 105.839,113.5 115.5,114C 119.982,117.705 120.649,122.038 117.5,127C 112.279,128.232 106.946,128.899 101.5,129C 89.0988,133.306 85.5988,141.472 91,153.5C 93.2643,156.433 96.0976,158.6 99.5,160C 113.833,160.333 128.167,160.667 142.5,161C 148.552,165.223 148.885,169.889 143.5,175C 132.597,176.289 121.597,176.956 110.5,177C 105.667,179.167 102.167,182.667 100,187.5C 85.1076,171.824 78.7743,153.158 81,131.5C 81.938,125.189 83.7713,119.189 86.5,113.5 Z"/></g>
<g><path style="opacity:1" fill="#565656" d="M 148.5,89.5 C 162.504,89.3334 176.504,89.5001 190.5,90C 208.682,106.543 216.182,127.043 213,151.5C 199.242,152.656 185.408,152.823 171.5,152C 165.416,147.688 165.083,143.021 170.5,138C 177.394,136.74 184.394,136.074 191.5,136C 201.045,131.655 204.212,124.488 201,114.5C 198.778,110.612 195.612,107.779 191.5,106C 177.167,105.667 162.833,105.333 148.5,105C 143.465,101.987 142.298,97.8201 145,92.5C 146.145,91.3636 147.312,90.3636 148.5,89.5 Z"/></g>
<g><path style="opacity:1" fill="#555555" d="M 176.5,80.5 C 166.833,81.1667 157.167,81.8333 147.5,82.5C 136.773,86.2893 133.273,93.6226 137,104.5C 139.315,108.817 142.815,111.65 147.5,113C 161.5,113.333 175.5,113.667 189.5,114C 195.729,118.171 196.062,122.837 190.5,128C 183.104,128.151 175.771,128.818 168.5,130C 158.762,136.714 156.928,145.214 163,155.5C 165.251,157.377 167.751,158.877 170.5,160C 183.846,160.167 197.179,160.667 210.5,161.5C 208.679,167.976 205.679,173.809 201.5,179C 191.5,179.333 181.5,179.667 171.5,180C 159.368,185.064 156.368,193.398 162.5,205C 143.372,209.958 125.705,206.791 109.5,195.5C 107.432,190.423 108.765,186.589 113.5,184C 123.833,183.667 134.167,183.333 144.5,183C 155.08,177.262 157.58,169.095 152,158.5C 149.559,156.031 146.726,154.198 143.5,153C 128.74,152.967 114.074,152.301 99.5,151C 95.0742,145.559 95.7409,140.892 101.5,137C 106.5,136.667 111.5,136.333 116.5,136C 125.532,132.603 129.032,126.103 127,116.5C 124.938,111.526 121.438,108.026 116.5,106C 107.833,105.667 99.1667,105.333 90.5,105C 112.823,75.0822 141.49,66.9155 176.5,80.5 Z"/></g>
<g><path style="opacity:1" fill="#8e8e8e" d="M 172.5,188.5 C 179.344,187.181 186.344,187.181 193.5,188.5C 193.376,189.107 193.043,189.44 192.5,189.5C 186.021,188.509 179.354,188.176 172.5,188.5 Z"/></g>
<g><path style="opacity:1" fill="#565656" d="M 172.5,188.5 C 179.354,188.176 186.021,188.509 192.5,189.5C 186.815,195.438 179.981,199.771 172,202.5C 168.503,201.516 167.003,199.182 167.5,195.5C 167.25,191.756 168.917,189.422 172.5,188.5 Z"/></g>
<g><path style="opacity:1" fill="#555555" d="M 48.5,199.5 C 61.1711,199.333 73.8377,199.5 86.5,200C 87,200.5 87.5,201 88,201.5C 88.6667,214.167 88.6667,226.833 88,239.5C 86.5341,241.325 84.7008,241.825 82.5,241C 79.9841,238.317 77.3174,235.817 74.5,233.5C 67.1054,240.899 59.4388,247.899 51.5,254.5C 45.2447,249.75 39.4114,244.417 34,238.5C 33.3333,237.167 33.3333,235.833 34,234.5C 41.0147,227.652 47.848,220.652 54.5,213.5C 52.1833,210.683 49.6833,208.016 47,205.5C 46.2516,203.16 46.7516,201.16 48.5,199.5 Z"/></g>
<g><path style="opacity:1" fill="#555555" d="M 208.5,199.5 C 220.838,199.333 233.171,199.5 245.5,200C 247.325,201.466 247.825,203.299 247,205.5C 244.5,208 242,210.5 239.5,213C 246.333,219.833 253.167,226.667 260,233.5C 260.808,235.579 260.641,237.579 259.5,239.5C 255.321,244.178 250.988,248.678 246.5,253C 244.635,254.301 242.635,254.635 240.5,254C 233.652,246.985 226.652,240.152 219.5,233.5C 216.683,235.817 214.016,238.317 211.5,241C 209.633,241.711 208.133,241.211 207,239.5C 206.333,226.833 206.333,214.167 207,201.5C 207.717,200.956 208.217,200.289 208.5,199.5 Z"/></g>
</svg>
