<?xml version="1.0" encoding="UTF-8"?>
<!DOCTYPE svg PUBLIC "-//W3C//DTD SVG 1.1//EN" "http://www.w3.org/Graphics/SVG/1.1/DTD/svg11.dtd">
<svg xmlns="http://www.w3.org/2000/svg" version="1.1" width="274px" height="202px" style="shape-rendering:geometricPrecision; text-rendering:geometricPrecision; image-rendering:optimizeQuality; fill-rule:evenodd; clip-rule:evenodd" xmlns:xlink="http://www.w3.org/1999/xlink">
<g><path style="opacity:1" fill="#fdfdfd" d="M -0.5,-0.5 C 90.8333,-0.5 182.167,-0.5 273.5,-0.5C 273.5,66.8333 273.5,134.167 273.5,201.5C 182.167,201.5 90.8333,201.5 -0.5,201.5C -0.5,134.167 -0.5,66.8333 -0.5,-0.5 Z"/></g>
<g><path style="opacity:1" fill="#545454" d="M 161.5,41.5 C 174.458,43.4814 187.791,44.1481 201.5,43.5C 207.02,44.851 210.853,48.1844 213,53.5C 213.667,67.5 213.667,81.5 213,95.5C 211.5,101 208,104.5 202.5,106C 180.169,106.5 157.836,106.667 135.5,106.5C 134.57,97.003 129.237,92.003 119.5,91.5C 110.182,92.3032 105.182,97.3032 104.5,106.5C 81.4976,106.667 58.4976,106.5 35.5,106C 31.6119,103.778 28.7786,100.612 27,96.5C 26.3333,82.1667 26.3333,67.8333 27,53.5C 28.8333,49 32,45.8333 36.5,44C 50.1667,43.6667 63.8333,43.3333 77.5,43C 80.3097,31.523 87.3097,23.8564 98.5,20C 113.568,19.0493 128.568,19.3826 143.5,21C 153.288,24.6151 159.288,31.4485 161.5,41.5 Z"/></g>
<g><path style="opacity:1" fill="#f3f3f3" d="M 100.5,33.5 C 113.504,33.3334 126.504,33.5001 139.5,34C 143.508,36.1634 146.174,39.3301 147.5,43.5C 129.167,43.5 110.833,43.5 92.5,43.5C 93.7354,39.0329 96.4021,35.6995 100.5,33.5 Z"/></g>
<g><path style="opacity:1" fill="#a8a8a8" d="M 161.5,41.5 C 174.932,42.1497 188.265,42.8164 201.5,43.5C 187.791,44.1481 174.458,43.4814 161.5,41.5 Z"/></g>
<g><path style="opacity:1" fill="#585858" d="M 117.5,99.5 C 127.26,100.442 131.094,105.775 129,115.5C 126.185,121.169 121.685,123.002 115.5,121C 108.311,113.02 108.978,105.854 117.5,99.5 Z"/></g>
<g><path style="opacity:1" fill="#545454" d="M 30.5,115.5 C 33.0417,116.624 35.7084,117.458 38.5,118C 60.8308,118.5 83.1642,118.667 105.5,118.5C 110.095,129.117 117.762,131.95 128.5,127C 131.531,124.817 133.531,121.984 134.5,118.5C 156.836,118.667 179.169,118.5 201.5,118C 204.053,117.239 206.553,116.406 209,115.5C 209.667,130.833 209.667,146.167 209,161.5C 207.629,164.88 205.462,167.713 202.5,170C 148.225,171.654 93.8915,171.987 39.5,171C 34.9378,169.373 32.1045,166.206 31,161.5C 30.5001,146.17 30.3334,130.837 30.5,115.5 Z"/></g>
</svg>
