<?xml version="1.0" encoding="UTF-8"?>
<!DOCTYPE svg PUBLIC "-//W3C//DTD SVG 1.1//EN" "http://www.w3.org/Graphics/SVG/1.1/DTD/svg11.dtd">
<svg xmlns="http://www.w3.org/2000/svg" version="1.1" width="297px" height="241px" style="shape-rendering:geometricPrecision; text-rendering:geometricPrecision; image-rendering:optimizeQuality; fill-rule:evenodd; clip-rule:evenodd" xmlns:xlink="http://www.w3.org/1999/xlink">
<g><path style="opacity:1" fill="#fefefe" d="M -0.5,-0.5 C 98.5,-0.5 197.5,-0.5 296.5,-0.5C 296.5,79.8333 296.5,160.167 296.5,240.5C 197.5,240.5 98.5,240.5 -0.5,240.5C -0.5,160.167 -0.5,79.8333 -0.5,-0.5 Z"/></g>
<g><path style="opacity:1" fill="#585858" d="M 66.5,31.5 C 92.8845,31.0361 119.218,31.5361 145.5,33C 147.709,34.8734 149.542,37.04 151,39.5C 155.774,60.5526 147.607,69.5526 126.5,66.5C 126.5,72.8333 126.5,79.1667 126.5,85.5C 133.175,85.3337 139.842,85.5004 146.5,86C 149.167,87.3333 151.833,88.6667 154.5,90C 158.856,95.3536 163.523,100.354 168.5,105C 175.115,106.108 181.782,106.775 188.5,107C 202.851,111.533 209.517,121.366 208.5,136.5C 213.5,136.5 218.5,136.5 223.5,136.5C 223.057,127.392 223.557,118.392 225,109.5C 229.892,105.224 235.392,104.39 241.5,107C 243.049,108.214 244.215,109.714 245,111.5C 245.667,140.167 245.667,168.833 245,197.5C 244.654,199.848 243.487,201.681 241.5,203C 235.392,205.61 229.892,204.776 225,200.5C 223.557,191.608 223.057,182.608 223.5,173.5C 218.5,173.5 213.5,173.5 208.5,173.5C 207.361,196.783 195.027,206.95 171.5,204C 169.004,205.08 166.67,206.414 164.5,208C 160.294,215.873 153.961,221.206 145.5,224C 121.167,224.667 96.8333,224.667 72.5,224C 64.3333,221.167 58.8333,215.667 56,207.5C 54.3237,197.228 53.157,186.895 52.5,176.5C 50.1667,176.5 47.8333,176.5 45.5,176.5C 45.6659,181.511 45.4993,186.511 45,191.5C 39.9132,200.737 33.5799,201.737 26,194.5C 24.8505,181.258 24.3505,167.924 24.5,154.5C 24.6667,141.833 24.8333,129.167 25,116.5C 28.9364,110.609 34.1031,109.109 40.5,112C 42.8102,113.637 44.3102,115.804 45,118.5C 45.4993,123.489 45.6659,128.489 45.5,133.5C 47.8333,133.5 50.1667,133.5 52.5,133.5C 52.8702,124.13 53.7036,114.797 55,105.5C 59.0803,91.8737 68.247,85.207 82.5,85.5C 82.5,79.1667 82.5,72.8333 82.5,66.5C 61.2782,69.4426 53.1116,60.4426 58,39.5C 60.0982,35.8972 62.9315,33.2305 66.5,31.5 Z"/></g>
<g><path style="opacity:1" fill="#fcfcfc" d="M 200.5,137.5 C 200.5,141.833 200.5,146.167 200.5,150.5C 192.648,150.175 184.982,150.508 177.5,151.5C 174.629,154.236 174.962,156.569 178.5,158.5C 185.648,159.492 192.981,159.825 200.5,159.5C 200.5,162.167 200.5,164.833 200.5,167.5C 200.739,173.565 200.239,179.565 199,185.5C 196.342,191.259 191.842,194.759 185.5,196C 179.5,196.333 173.5,196.667 167.5,197C 161.081,199.75 156.248,204.25 153,210.5C 151.062,213.106 148.562,214.939 145.5,216C 121.5,216.667 97.5,216.667 73.5,216C 67.4422,213.062 63.9422,208.229 63,201.5C 58.3526,169.515 58.3526,137.515 63,105.5C 64.7425,100.09 68.2425,96.2563 73.5,94C 98.2163,93.0388 122.883,93.3722 147.5,95C 149.96,96.4578 152.127,98.2911 154,100.5C 156.892,106.392 161.392,110.559 167.5,113C 174.458,114.064 181.458,114.731 188.5,115C 198.591,119.091 202.591,126.591 200.5,137.5 Z"/></g>
<g><path style="opacity:1" fill="#565656" d="M 112.5,108.5 C 150.054,109.216 167.554,128.216 165,165.5C 156.476,191.189 138.643,203.022 111.5,201C 91.0039,196.504 78.5039,184.004 74,163.5C 71.5144,134.19 84.3478,115.856 112.5,108.5 Z"/></g>
<g><path style="opacity:1" fill="#fafafa" d="M 67.5,39.5 C 92.1689,39.3334 116.836,39.5 141.5,40C 142,40.5 142.5,41 143,41.5C 143.667,46.5 143.667,51.5 143,56.5C 142.5,57 142,57.5 141.5,58C 116.833,58.6667 92.1667,58.6667 67.5,58C 65.9623,55.0724 65.2956,51.9058 65.5,48.5C 65.2687,45.1904 65.9353,42.1904 67.5,39.5 Z"/></g>
<g><path style="opacity:1" fill="#fdfdfd" d="M 231.5,113.5 C 233.5,113.5 235.5,113.5 237.5,113.5C 237.5,141.167 237.5,168.833 237.5,196.5C 235.5,196.5 233.5,196.5 231.5,196.5C 231.5,168.833 231.5,141.167 231.5,113.5 Z"/></g>
<g><path style="opacity:1" fill="#fcfcfc" d="M 33.5,118.5 C 34.8221,118.33 35.9887,118.663 37,119.5C 37.6667,143.167 37.6667,166.833 37,190.5C 35.6667,191.833 34.3333,191.833 33,190.5C 32.1775,166.428 32.3442,142.428 33.5,118.5 Z"/></g>
<g><path style="opacity:1" fill="#f7f7f7" d="M 117.5,123.5 C 122.418,123.172 124.418,125.505 123.5,130.5C 127.243,131.534 130.91,132.868 134.5,134.5C 136.26,131.979 138.593,131.146 141.5,132C 144.197,135.082 143.864,137.915 140.5,140.5C 142.632,143.896 143.965,147.563 144.5,151.5C 151.084,151.004 152.751,153.504 149.5,159C 147.744,159.202 146.078,159.702 144.5,160.5C 143.617,163.325 142.45,165.992 141,168.5C 142.132,171.34 142.798,174.34 143,177.5C 140.35,180.217 137.85,180.051 135.5,177C 131.879,177.816 128.212,178.983 124.5,180.5C 123.702,182.078 123.202,183.744 123,185.5C 117.638,188.671 115.138,187.004 115.5,180.5C 111.631,180.149 108.131,178.816 105,176.5C 103.333,177.5 101.667,178.5 100,179.5C 95.1866,177.742 94.5199,175.075 98,171.5C 98.6667,170.5 98.6667,169.5 98,168.5C 96.2344,166.119 95.0678,163.452 94.5,160.5C 88.9028,160.261 86.9028,157.595 88.5,152.5C 90.396,151.534 92.396,151.201 94.5,151.5C 94.8506,147.631 96.1839,144.131 98.5,141C 98.0696,139.566 97.2362,138.399 96,137.5C 94.9277,134.447 95.9277,132.447 99,131.5C 101.155,132.244 103.155,133.244 105,134.5C 108.307,132.675 111.807,131.342 115.5,130.5C 115.166,127.812 115.832,125.479 117.5,123.5 Z"/></g>
<g><path style="opacity:1" fill="#fbfbfb" d="M 45.5,141.5 C 47.5,141.5 49.5,141.5 51.5,141.5C 51.5,150.5 51.5,159.5 51.5,168.5C 49.5,168.5 47.5,168.5 45.5,168.5C 45.5,159.5 45.5,150.5 45.5,141.5 Z"/></g>
<g><path style="opacity:1" fill="#9d9d9d" d="M 45.5,141.5 C 47.6074,140.532 49.9407,140.198 52.5,140.5C 52.5,150.167 52.5,159.833 52.5,169.5C 49.9407,169.802 47.6074,169.468 45.5,168.5C 47.5,168.5 49.5,168.5 51.5,168.5C 51.5,159.5 51.5,150.5 51.5,141.5C 49.5,141.5 47.5,141.5 45.5,141.5 Z"/></g>
<g><path style="opacity:1" fill="#c7c7c7" d="M 200.5,137.5 C 201.486,141.97 201.819,146.637 201.5,151.5C 193.5,151.5 185.5,151.5 177.5,151.5C 184.982,150.508 192.648,150.175 200.5,150.5C 200.5,146.167 200.5,141.833 200.5,137.5 Z"/></g>
<g><path style="opacity:1" fill="#bfbfbf" d="M 178.5,158.5 C 186.167,158.5 193.833,158.5 201.5,158.5C 201.81,161.713 201.477,164.713 200.5,167.5C 200.5,164.833 200.5,162.167 200.5,159.5C 192.981,159.825 185.648,159.492 178.5,158.5 Z"/></g>
<g><path style="opacity:1" fill="#595959" d="M 113.5,138.5 C 133.093,137.918 139.926,146.918 134,165.5C 126.968,172.901 118.801,174.401 109.5,170C 102.009,163.006 100.509,154.84 105,145.5C 107.441,142.546 110.275,140.213 113.5,138.5 Z"/></g>
<g><path style="opacity:1" fill="#f6f6f6" d="M 114.5,143.5 C 129.392,142.963 134.225,149.63 129,163.5C 124.063,167.722 118.563,168.556 112.5,166C 105.331,157.703 105.998,150.203 114.5,143.5 Z"/></g>
<g><path style="opacity:1" fill="#555555" d="M 117.5,151.5 C 123.488,151.664 124.821,154.164 121.5,159C 115.403,159.147 114.07,156.647 117.5,151.5 Z"/></g>
</svg>
