<?xml version="1.0" encoding="UTF-8"?>
<!DOCTYPE svg PUBLIC "-//W3C//DTD SVG 1.1//EN" "http://www.w3.org/Graphics/SVG/1.1/DTD/svg11.dtd">
<svg xmlns="http://www.w3.org/2000/svg" version="1.1" width="282px" height="247px" style="shape-rendering:geometricPrecision; text-rendering:geometricPrecision; image-rendering:optimizeQuality; fill-rule:evenodd; clip-rule:evenodd" xmlns:xlink="http://www.w3.org/1999/xlink">
<g><path style="opacity:1" fill="#fefefe" d="M -0.5,-0.5 C 93.5,-0.5 187.5,-0.5 281.5,-0.5C 281.5,81.8333 281.5,164.167 281.5,246.5C 187.5,246.5 93.5,246.5 -0.5,246.5C -0.5,164.167 -0.5,81.8333 -0.5,-0.5 Z"/></g>
<g><path style="opacity:1" fill="#585858" d="M 125.5,31.5 C 127.591,31.3184 129.591,31.6518 131.5,32.5C 136.279,37.6212 141.112,42.6212 146,47.5C 146.667,49.1667 146.667,50.8333 146,52.5C 141.167,57.3333 136.333,62.1667 131.5,67C 125.507,68.6683 123.007,66.5017 124,60.5C 126.295,58.92 127.628,56.92 128,54.5C 96.4025,59.0993 74.4025,76.0993 62,105.5C 54.5816,106.734 52.2482,103.734 55,96.5C 69.9566,65.7643 94.4566,48.431 128.5,44.5C 126.808,42.6414 125.308,40.6414 124,38.5C 123.167,35.829 123.667,33.4957 125.5,31.5 Z"/></g>
<g><path style="opacity:1" fill="#575757" d="M 127.5,78.5 C 140.366,74.8198 146.866,79.4864 147,92.5C 149.231,94.3769 151.731,95.2102 154.5,95C 157.403,92.4276 160.569,90.261 164,88.5C 168.573,91.0661 172.573,94.3995 176,98.5C 176.667,100.5 176.667,102.5 176,104.5C 173.787,107.095 171.953,109.928 170.5,113C 171.776,118.826 175.442,121.16 181.5,120C 183.329,120.273 184.829,121.107 186,122.5C 186.667,128.167 186.667,133.833 186,139.5C 185.5,140 185,140.5 184.5,141C 180.509,141.642 176.509,142.142 172.5,142.5C 172.276,144.787 171.609,146.953 170.5,149C 172.206,151.572 174.039,154.072 176,156.5C 176.667,158.833 176.667,161.167 176,163.5C 172.806,167.709 168.806,170.709 164,172.5C 159.954,170.894 156.12,168.894 152.5,166.5C 150.726,166.887 149.059,167.553 147.5,168.5C 146.453,172.112 145.62,175.779 145,179.5C 144.167,180.333 143.333,181.167 142.5,182C 137.167,182.667 131.833,182.667 126.5,182C 125.299,181.097 124.465,179.931 124,178.5C 125.229,172.003 122.729,168.003 116.5,166.5C 113.659,168.086 110.993,169.92 108.5,172C 106.5,172.667 104.5,172.667 102.5,172C 99.3333,168.833 96.1667,165.667 93,162.5C 92.3333,160.833 92.3333,159.167 93,157.5C 95.4655,154.872 97.2988,151.872 98.5,148.5C 98.1252,146.541 97.4585,144.707 96.5,143C 91.3692,143.099 86.8692,141.599 83,138.5C 82.3333,133.167 82.3333,127.833 83,122.5C 84.2547,121.789 85.4214,120.956 86.5,120C 89.8818,119.824 93.2152,119.324 96.5,118.5C 97.3661,116.568 98.0328,114.568 98.5,112.5C 96.3633,109.058 94.3633,105.558 92.5,102C 92.6448,100.774 92.9781,99.6074 93.5,98.5C 96.9902,94.828 100.824,91.4947 105,88.5C 109.218,90.222 113.052,92.5553 116.5,95.5C 118.385,94.3906 120.385,93.5573 122.5,93C 123.293,89.5894 123.793,86.0894 124,82.5C 125.376,81.2949 126.542,79.9616 127.5,78.5 Z"/></g>
<g><path style="opacity:1" fill="#595959" d="M 161.5,50.5 C 167.955,51.2196 173.955,53.3863 179.5,57C 204.015,72.8306 218.348,95.3306 222.5,124.5C 224.316,123.185 225.983,121.685 227.5,120C 233.502,119.007 235.668,121.507 234,127.5C 229.5,132 225,136.5 220.5,141C 218.305,142.373 215.971,142.706 213.5,142C 208.667,137.167 203.833,132.333 199,127.5C 197.332,121.507 199.498,119.007 205.5,120C 207.333,121.833 209.167,123.667 211,125.5C 209.395,103.222 199.895,85.0555 182.5,71C 175.216,66.1094 167.716,61.6094 160,57.5C 159.167,54.829 159.667,52.4957 161.5,50.5 Z"/></g>
<g><path style="opacity:1" fill="#fafafa" d="M 129.5,106.5 C 148.533,105.707 158.366,114.707 159,133.5C 155.445,149.032 145.612,156.198 129.5,155C 111.654,147.803 106.487,135.303 114,117.5C 117.986,111.99 123.153,108.323 129.5,106.5 Z"/></g>
<g><path style="opacity:1" fill="#595959" d="M 51.5,118.5 C 53.3084,118.491 54.9751,118.991 56.5,120C 61.3333,124.833 66.1667,129.667 71,134.5C 71.9931,140.502 69.4931,142.668 63.5,141C 62,139.5 60.5,138 59,136.5C 61.7342,168.24 77.9008,190.073 107.5,202C 112.016,206.755 111.016,209.921 104.5,211.5C 70.8412,197.818 51.8412,172.818 47.5,136.5C 45.1162,138.885 42.4495,140.885 39.5,142.5C 34.5301,140.945 33.3635,137.945 36,133.5C 41.062,128.269 46.2286,123.269 51.5,118.5 Z"/></g>
<g><path style="opacity:1" fill="#595959" d="M 140.5,121.5 C 147.107,119.749 149.607,122.082 148,128.5C 143.306,133.439 138.473,138.272 133.5,143C 132.167,143.667 130.833,143.667 129.5,143C 126.333,139.833 123.167,136.667 120,133.5C 118.584,129.492 119.918,127.159 124,126.5C 126.996,126.914 129.496,128.248 131.5,130.5C 134.854,127.812 137.854,124.812 140.5,121.5 Z"/></g>
<g><path style="opacity:1" fill="#595959" d="M 208.5,155.5 C 214.499,155.002 216.666,157.669 215,163.5C 200.118,195.042 175.285,213.042 140.5,217.5C 142.149,219.65 143.982,221.65 146,223.5C 146.825,225.701 146.325,227.534 144.5,229C 142.167,229.667 139.833,229.667 137.5,229C 131.743,223.915 126.743,218.249 122.5,212C 127.112,205.053 132.779,199.053 139.5,194C 144.333,193.5 146.5,195.667 146,200.5C 144.167,202.333 142.333,204.167 140.5,206C 163.918,204.374 182.751,194.207 197,175.5C 201.112,168.937 204.945,162.27 208.5,155.5 Z"/></g>
</svg>
