<?xml version="1.0" encoding="UTF-8"?>
<!DOCTYPE svg PUBLIC "-//W3C//DTD SVG 1.1//EN" "http://www.w3.org/Graphics/SVG/1.1/DTD/svg11.dtd">
<svg xmlns="http://www.w3.org/2000/svg" version="1.1" width="271px" height="220px" style="shape-rendering:geometricPrecision; text-rendering:geometricPrecision; image-rendering:optimizeQuality; fill-rule:evenodd; clip-rule:evenodd" xmlns:xlink="http://www.w3.org/1999/xlink">
<g><path style="opacity:1" fill="#fefefe" d="M -0.5,-0.5 C 89.8333,-0.5 180.167,-0.5 270.5,-0.5C 270.5,72.8333 270.5,146.167 270.5,219.5C 180.167,219.5 89.8333,219.5 -0.5,219.5C -0.5,146.167 -0.5,72.8333 -0.5,-0.5 Z"/></g>
<g><path style="opacity:1" fill="#5b5b5b" d="M 179.5,22.5 C 185.509,22.3338 191.509,22.5005 197.5,23C 198.27,25.6067 198.937,28.2734 199.5,31C 203.759,35.7145 207.759,35.3812 211.5,30C 212.5,29.3333 213.5,29.3333 214.5,30C 218,33.5 221.5,37 225,40.5C 225.045,44.2496 223.545,47.4162 220.5,50C 222.26,56.0058 226.26,58.5058 232.5,57.5C 232.5,63.8333 232.5,70.1667 232.5,76.5C 226.366,75.7276 222.366,78.2276 220.5,84C 223.545,86.5838 225.045,89.7504 225,93.5C 221.5,97 218,100.5 214.5,104C 213.5,104.667 212.5,104.667 211.5,104C 209.679,102.257 207.679,100.757 205.5,99.5C 199.684,100.778 197.017,104.445 197.5,110.5C 191.5,111.167 185.5,111.833 179.5,112.5C 165.207,141.649 141.874,153.983 109.5,149.5C 105.834,150.673 102.834,152.84 100.5,156C 92.2592,155.378 91.4259,157.878 98,163.5C 98.9299,166.85 98.0965,169.683 95.5,172C 92.4209,172.619 89.9209,174.119 88,176.5C 83,185.167 78,193.833 73,202.5C 63.3844,210.218 55.3844,208.884 49,198.5C 48.3333,195.167 48.3333,191.833 49,188.5C 54.5,178.833 60,169.167 65.5,159.5C 62.3557,154.577 63.3557,150.743 68.5,148C 71.3766,147.275 74.0433,147.775 76.5,149.5C 77.4147,148.672 78.0814,147.672 78.5,146.5C 76.5984,144.937 75.5984,142.937 75.5,140.5C 76.4147,136.856 76.5813,133.19 76,129.5C 56.237,103.633 55.5703,77.3001 74,50.5C 97.4471,25.7584 124.447,21.0917 155,36.5C 158,34.1667 161,31.8333 164,29.5C 166.156,30.9851 168.323,32.4851 170.5,34C 173.031,34.0294 175.364,33.1961 177.5,31.5C 178.169,28.4701 178.835,25.4701 179.5,22.5 Z"/></g>
<g><path style="opacity:1" fill="#fbfbfb" d="M 183.5,47.5 C 203.506,47.5222 211.006,57.1889 206,76.5C 200.694,84.554 193.194,87.8873 183.5,86.5C 183.25,74.8225 179.917,64.1558 173.5,54.5C 176.32,51.3328 179.653,48.9994 183.5,47.5 Z"/></g>
<g><path style="opacity:1" fill="#f4f4f4" d="M 110.5,32.5 C 139.856,29.2584 161.356,40.5917 175,66.5C 185.173,97.9895 176.339,122.489 148.5,140C 118.182,152.61 93.3485,145.777 74,119.5C 58.6189,90.0225 63.4523,64.5225 88.5,43C 95.4918,38.6228 102.825,35.1228 110.5,32.5 Z"/></g>
<g><path style="opacity:1" fill="#f9f9f9" d="M 182.5,27.5 C 186.5,27.5 190.5,27.5 194.5,27.5C 194.02,30.6852 194.686,33.5185 196.5,36C 199.505,37.1697 202.505,38.3364 205.5,39.5C 207.959,38.4358 210.292,37.1025 212.5,35.5C 215.167,37.8333 217.833,40.1667 220.5,42.5C 218.951,45.1028 217.285,47.6028 215.5,50C 217.717,53.1507 219.051,56.6507 219.5,60.5C 222.482,60.9629 225.482,61.2962 228.5,61.5C 228.5,65.1667 228.5,68.8333 228.5,72.5C 224.885,72.2055 221.718,73.2055 219,75.5C 218.31,78.5256 217.143,81.359 215.5,84C 217.285,86.3972 218.951,88.8972 220.5,91.5C 218.473,92.6933 216.973,94.36 216,96.5C 214.915,97.2931 213.748,97.9598 212.5,98.5C 210.143,97.1287 207.81,95.7954 205.5,94.5C 201.777,95.779 198.277,97.4457 195,99.5C 194.503,101.81 194.337,104.143 194.5,106.5C 190.5,106.5 186.5,106.5 182.5,106.5C 183.053,101.518 183.387,96.518 183.5,91.5C 200.493,92.163 210.159,84.163 212.5,67.5C 210.672,50.1783 201.005,42.0116 183.5,43C 178.545,44.4758 174.212,46.9758 170.5,50.5C 167.314,46.4804 163.647,42.9804 159.5,40C 161.017,38.3149 162.684,36.8149 164.5,35.5C 166.708,37.1025 169.041,38.4358 171.5,39.5C 174.495,38.3364 177.495,37.1697 180.5,36C 181.991,33.3788 182.658,30.5455 182.5,27.5 Z"/></g>
<g><path style="opacity:1" fill="#5b5b5b" d="M 111.5,37.5 C 142.153,34.7317 162.653,47.7317 173,76.5C 177.353,106.637 165.519,127.47 137.5,139C 112.416,144.867 92.5829,137.367 78,116.5C 64.3337,89.6847 68.8337,66.518 91.5,47C 97.8737,42.9775 104.54,39.8108 111.5,37.5 Z"/></g>
<g><path style="opacity:1" fill="#fcfcfc" d="M 116.5,41.5 C 140.235,40.7763 157.068,51.1096 167,72.5C 173.425,95.5567 167.258,114.39 148.5,129C 122.134,142.877 99.9676,138.044 82,114.5C 69.1357,88.6097 73.969,66.7764 96.5,49C 102.885,45.3765 109.552,42.8765 116.5,41.5 Z"/></g>
<g><path style="opacity:1" fill="#585858" d="M 136.5,65.5 C 146.992,63.8335 151.826,68.1669 151,78.5C 149.667,80.5 148.333,82.5 147,84.5C 137.5,92.6667 128.667,101.5 120.5,111C 119.338,111.827 118.171,112.66 117,113.5C 109.376,106.877 102.042,99.8774 95,92.5C 91.4596,81.0444 95.6263,75.8778 107.5,77C 110.646,79.3116 113.646,81.8116 116.5,84.5C 123.214,78.1174 129.88,71.784 136.5,65.5 Z"/></g>
<g><path style="opacity:1" fill="#f8f8f8" d="M 138.5,69.5 C 144.82,69.3196 147.32,72.3196 146,78.5C 136.5,88 127,97.5 117.5,107C 116.833,107.667 116.167,107.667 115.5,107C 110.333,101.833 105.167,96.6667 100,91.5C 96.5694,83.5997 99.0694,80.433 107.5,82C 110.349,85.0162 113.349,87.8496 116.5,90.5C 123.88,83.4508 131.214,76.4508 138.5,69.5 Z"/></g>
<g><path style="opacity:1" fill="#f4f4f4" d="M 80.5,135.5 C 87.2909,140.402 94.6243,144.569 102.5,148C 101.315,149.353 99.9814,150.52 98.5,151.5C 92.2804,148.766 86.4471,145.433 81,141.5C 80.5045,139.527 80.3379,137.527 80.5,135.5 Z"/></g>
<g><path style="opacity:1" fill="#f2f2f2" d="M 82.5,148.5 C 85.0255,149.681 87.5255,151.014 90,152.5C 90.3876,154.076 89.8876,155.409 88.5,156.5C 85.9613,154.8 83.2947,153.3 80.5,152C 81.305,150.887 81.9717,149.721 82.5,148.5 Z"/></g>
<g><path style="opacity:1" fill="#f5f5f5" d="M 69.5,152.5 C 77.4739,155.621 85.1406,159.454 92.5,164C 93.3802,165.356 93.7135,166.856 93.5,168.5C 91.8008,168.66 90.1341,168.494 88.5,168C 82.1667,164.333 75.8333,160.667 69.5,157C 68.2721,155.51 68.2721,154.01 69.5,152.5 Z"/></g>
<g><path style="opacity:1" fill="#fbfbfb" d="M 68.5,162.5 C 74.4352,165.136 80.1018,168.302 85.5,172C 80.2072,180.751 75.0405,189.585 70,198.5C 66.9502,202.13 63.1169,203.297 58.5,202C 53.5736,199.647 51.7402,195.814 53,190.5C 58.4236,181.26 63.5902,171.927 68.5,162.5 Z"/></g>
</svg>
