<?xml version="1.0" encoding="UTF-8"?>
<!DOCTYPE svg PUBLIC "-//W3C//DTD SVG 1.1//EN" "http://www.w3.org/Graphics/SVG/1.1/DTD/svg11.dtd">
<svg xmlns="http://www.w3.org/2000/svg" version="1.1" width="417px" height="358px" style="shape-rendering:geometricPrecision; text-rendering:geometricPrecision; image-rendering:optimizeQuality; fill-rule:evenodd; clip-rule:evenodd" xmlns:xlink="http://www.w3.org/1999/xlink">
<g><path style="opacity:1" fill="#fefefe" d="M -0.5,-0.5 C 138.5,-0.5 277.5,-0.5 416.5,-0.5C 416.5,118.833 416.5,238.167 416.5,357.5C 277.5,357.5 138.5,357.5 -0.5,357.5C -0.5,238.167 -0.5,118.833 -0.5,-0.5 Z"/></g>
<g><path style="opacity:1" fill="#585858" d="M 330.5,52.5 C 333.272,52.22 335.772,52.8866 338,54.5C 338.822,68.0752 338.656,81.5752 337.5,95C 335.833,95.6667 334.167,95.6667 332.5,95C 330.268,92.2651 327.601,90.0984 324.5,88.5C 281.591,134.838 228.425,158.505 165,159.5C 164.28,157.888 164.446,156.388 165.5,155C 220.976,141.934 266.976,113.601 303.5,70C 300.428,67.0494 297.261,64.2161 294,61.5C 293.257,59.5594 293.424,57.7261 294.5,56C 306.622,54.5902 318.622,53.4236 330.5,52.5 Z"/></g>
<g><path style="opacity:1" fill="#d4d4d4" d="M 316.5,60.5 C 321.5,60.5 326.5,60.5 331.5,60.5C 331.666,68.5069 331.5,76.5069 331,84.5C 328.998,81.113 326.165,79.613 322.5,80C 293.442,114.066 257.109,136.066 213.5,146C 252.625,129.549 285.458,104.716 312,71.5C 312.667,70.1667 312.667,68.8333 312,67.5C 310.22,65.7071 308.387,64.0404 306.5,62.5C 309.977,61.8328 313.311,61.1661 316.5,60.5 Z"/></g>
<g><path style="opacity:1" fill="#585858" d="M 84.5,305.5 C 128.5,305.5 172.5,305.5 216.5,305.5C 216.5,272.833 216.5,240.167 216.5,207.5C 216.611,206.883 216.944,206.383 217.5,206C 228.743,205.18 239.91,205.347 251,206.5C 251.5,239.165 251.667,271.832 251.5,304.5C 256.5,304.5 261.5,304.5 266.5,304.5C 266.333,258.499 266.5,212.499 267,166.5C 267.5,166 268,165.5 268.5,165C 278.833,164.333 289.167,164.333 299.5,165C 300.416,165.374 301.25,165.874 302,166.5C 302.5,212.499 302.667,258.499 302.5,304.5C 307.167,304.5 311.833,304.5 316.5,304.5C 316.333,244.499 316.5,184.499 317,124.5C 317.5,124 318,123.5 318.5,123C 329.167,122.333 339.833,122.333 350.5,123C 351,123.5 351.5,124 352,124.5C 352.5,184.499 352.667,244.499 352.5,304.5C 359.841,304.334 367.174,304.5 374.5,305C 375.641,310.75 375.807,316.584 375,322.5C 374.5,323 374,323.5 373.5,324C 277.165,324.833 180.832,324.667 84.5,323.5C 83.1704,317.47 83.1704,311.47 84.5,305.5 Z"/></g>
<g><path style="opacity:1" fill="#bfbfbf" d="M 323.5,130.5 C 330.648,129.508 337.981,129.175 345.5,129.5C 345.832,188.002 345.499,246.336 344.5,304.5C 344.5,246.5 344.5,188.5 344.5,130.5C 337.5,130.5 330.5,130.5 323.5,130.5 Z"/></g>
<g><path style="opacity:1" fill="#fefefe" d="M 323.5,130.5 C 330.5,130.5 337.5,130.5 344.5,130.5C 344.5,188.5 344.5,246.5 344.5,304.5C 337.5,304.5 330.5,304.5 323.5,304.5C 323.5,246.5 323.5,188.5 323.5,130.5 Z"/></g>
<g><path style="opacity:1" fill="#9c9c9c" d="M 294.5,304.5 C 294.5,260.5 294.5,216.5 294.5,172.5C 287.5,172.5 280.5,172.5 273.5,172.5C 273.5,216.5 273.5,260.5 273.5,304.5C 272.501,260.336 272.168,216.003 272.5,171.5C 280.167,171.5 287.833,171.5 295.5,171.5C 295.832,216.003 295.499,260.336 294.5,304.5 Z"/></g>
<g><path style="opacity:1" fill="#fefefe" d="M 294.5,304.5 C 287.5,304.5 280.5,304.5 273.5,304.5C 273.5,260.5 273.5,216.5 273.5,172.5C 280.5,172.5 287.5,172.5 294.5,172.5C 294.5,216.5 294.5,260.5 294.5,304.5 Z"/></g>
<g><path style="opacity:1" fill="#595959" d="M 164.5,299.5 C 157.529,300.29 150.529,300.623 143.5,300.5C 118.911,297.089 102.078,283.756 93,260.5C 84.089,225.867 95.589,200.701 127.5,185C 162.855,174.781 189.022,185.948 206,218.5C 215.438,249.521 206.938,274.354 180.5,293C 175.338,295.663 170.005,297.83 164.5,299.5 Z"/></g>
<g><path style="opacity:1" fill="#8a8a8a" d="M 244.5,304.5 C 244.5,274.167 244.5,243.833 244.5,213.5C 237.5,213.5 230.5,213.5 223.5,213.5C 223.5,243.833 223.5,274.167 223.5,304.5C 222.502,274.005 222.169,243.338 222.5,212.5C 230.167,212.5 237.833,212.5 245.5,212.5C 245.831,243.338 245.498,274.005 244.5,304.5 Z"/></g>
<g><path style="opacity:1" fill="#fefefe" d="M 244.5,304.5 C 237.5,304.5 230.5,304.5 223.5,304.5C 223.5,274.167 223.5,243.833 223.5,213.5C 230.5,213.5 237.5,213.5 244.5,213.5C 244.5,243.833 244.5,274.167 244.5,304.5 Z"/></g>
<g><path style="opacity:1" fill="#d3d3d3" d="M 142.5,187.5 C 172.382,186.921 192.216,200.588 202,228.5C 206.154,259.287 193.988,280.454 165.5,292C 139.267,297.928 118.767,289.761 104,267.5C 90.3927,238.695 96.226,214.862 121.5,196C 128.148,192.067 135.148,189.234 142.5,187.5 Z"/></g>
<g><path style="opacity:1" fill="#595959" d="M 138.5,195.5 C 164.86,192.253 183.36,202.586 194,226.5C 199.008,245.646 194.508,262.146 180.5,276C 168.325,285.277 154.659,288.611 139.5,286C 114.423,278.025 102.59,260.859 104,234.5C 107.954,214.719 119.454,201.719 138.5,195.5 Z"/></g>
<g><path style="opacity:1" fill="#979797" d="M 147.5,278.5 C 149.167,278.5 150.833,278.5 152.5,278.5C 152.842,279.338 153.508,279.672 154.5,279.5C 151.5,280.833 148.5,280.833 145.5,279.5C 146.492,279.672 147.158,279.338 147.5,278.5 Z"/></g>
<g><path style="opacity:1" fill="#afafaf" d="M 177.5,264.5 C 178.167,265.167 178.833,265.833 179.5,266.5C 178.5,268.167 177.167,269.5 175.5,270.5C 174.5,269.833 173.5,269.167 172.5,268.5C 175.95,269.244 177.616,267.91 177.5,264.5 Z"/></g>
<g><path style="opacity:1" fill="#acacac" d="M 122.5,264.5 C 122.167,267.5 123.5,268.833 126.5,268.5C 125.833,269.167 125.167,269.833 124.5,270.5C 122.833,269.5 121.5,268.167 120.5,266.5C 121.167,265.833 121.833,265.167 122.5,264.5 Z"/></g>
<g><path style="opacity:1" fill="#575757" d="M 177.5,264.5 C 177.616,267.91 175.95,269.244 172.5,268.5C 169.724,266.561 169.057,264.061 170.5,261C 173.813,260.136 176.146,261.302 177.5,264.5 Z"/></g>
<g><path style="opacity:1" fill="#595959" d="M 126.5,268.5 C 123.5,268.833 122.167,267.5 122.5,264.5C 123.5,260.852 125.834,259.686 129.5,261C 131.164,264.487 130.164,266.987 126.5,268.5 Z"/></g>
<g><path style="opacity:1" fill="#979797" d="M 188.5,235.5 C 189.833,239.167 189.833,242.833 188.5,246.5C 188.768,244.901 188.434,243.568 187.5,242.5C 188.833,241.5 188.833,240.5 187.5,239.5C 188.434,238.432 188.768,237.099 188.5,235.5 Z"/></g>
<g><path style="opacity:1" fill="#585858" d="M 147.5,203.5 C 149.167,203.5 150.833,203.5 152.5,203.5C 154.021,206.705 153.688,209.705 151.5,212.5C 151.808,213.308 152.308,213.975 153,214.5C 153.17,220.196 153.67,225.862 154.5,231.5C 158.744,232.983 160.744,235.983 160.5,240.5C 159.443,249.377 154.443,252.877 145.5,251C 142.833,249.667 140.833,247.667 139.5,245C 134.167,244.667 128.833,244.333 123.5,244C 122.975,243.308 122.308,242.808 121.5,242.5C 118.133,245.157 114.8,245.157 111.5,242.5C 111.5,241.5 111.5,240.5 111.5,239.5C 114.8,236.843 118.133,236.843 121.5,239.5C 122.308,239.192 122.975,238.692 123.5,238C 128.833,237.667 134.167,237.333 139.5,237C 141,234.167 143.167,232 146,230.5C 146.333,225.167 146.667,219.833 147,214.5C 147.692,213.975 148.192,213.308 148.5,212.5C 146.312,209.705 145.979,206.705 147.5,203.5 Z"/></g>
<g><path style="opacity:1" fill="#d2d2d2" d="M 147.5,237.5 C 153.158,236.679 154.825,238.846 152.5,244C 146.741,245.139 145.074,242.972 147.5,237.5 Z"/></g>
<g><path style="opacity:1" fill="#5a5a5a" d="M 187.5,239.5 C 188.833,240.5 188.833,241.5 187.5,242.5C 186.688,243.993 185.355,244.66 183.5,244.5C 178.502,243.984 177.502,241.818 180.5,238C 182.5,237.333 184.5,237.333 186.5,238C 187.056,238.383 187.389,238.883 187.5,239.5 Z"/></g>
<g><path style="opacity:1" fill="#afafaf" d="M 175.5,211.5 C 177.167,212.5 178.5,213.833 179.5,215.5C 178.833,216.167 178.167,216.833 177.5,217.5C 177.616,214.09 175.95,212.756 172.5,213.5C 173.5,212.833 174.5,212.167 175.5,211.5 Z"/></g>
<g><path style="opacity:1" fill="#595959" d="M 172.5,213.5 C 175.95,212.756 177.616,214.09 177.5,217.5C 176.194,220.626 173.86,221.793 170.5,221C 169.057,217.939 169.724,215.439 172.5,213.5 Z"/></g>
<g><path style="opacity:1" fill="#585858" d="M 126.5,213.5 C 131.421,216.352 131.587,219.019 127,221.5C 124.859,220.879 123.359,219.546 122.5,217.5C 122.167,214.5 123.5,213.167 126.5,213.5 Z"/></g>
<g><path style="opacity:1" fill="#a7a7a7" d="M 124.5,211.5 C 125.167,212.167 125.833,212.833 126.5,213.5C 123.5,213.167 122.167,214.5 122.5,217.5C 121.833,216.833 121.167,216.167 120.5,215.5C 121.5,213.833 122.833,212.5 124.5,211.5 Z"/></g>
<g><path style="opacity:1" fill="#fbfbfb" d="M 153.5,202.5 C 161.789,203.316 169.122,206.316 175.5,211.5C 174.5,212.167 173.5,212.833 172.5,213.5C 169.724,215.439 169.057,217.939 170.5,221C 173.86,221.793 176.194,220.626 177.5,217.5C 178.167,216.833 178.833,216.167 179.5,215.5C 184.661,221.159 187.661,227.825 188.5,235.5C 188.768,237.099 188.434,238.432 187.5,239.5C 187.389,238.883 187.056,238.383 186.5,238C 184.5,237.333 182.5,237.333 180.5,238C 177.502,241.818 178.502,243.984 183.5,244.5C 185.355,244.66 186.688,243.993 187.5,242.5C 188.434,243.568 188.768,244.901 188.5,246.5C 187.417,254.102 184.417,260.769 179.5,266.5C 178.833,265.833 178.167,265.167 177.5,264.5C 176.146,261.302 173.813,260.136 170.5,261C 169.057,264.061 169.724,266.561 172.5,268.5C 173.5,269.167 174.5,269.833 175.5,270.5C 169.461,275.628 162.461,278.628 154.5,279.5C 153.508,279.672 152.842,279.338 152.5,278.5C 154.417,274.608 153.583,271.608 150,269.5C 146.417,271.608 145.583,274.608 147.5,278.5C 147.158,279.338 146.492,279.672 145.5,279.5C 137.389,278.941 130.389,275.941 124.5,270.5C 125.167,269.833 125.833,269.167 126.5,268.5C 130.164,266.987 131.164,264.487 129.5,261C 125.834,259.686 123.5,260.852 122.5,264.5C 121.833,265.167 121.167,265.833 120.5,266.5C 114.158,259.805 111.158,251.805 111.5,242.5C 114.8,245.157 118.133,245.157 121.5,242.5C 122.308,242.808 122.975,243.308 123.5,244C 128.833,244.333 134.167,244.667 139.5,245C 140.833,247.667 142.833,249.667 145.5,251C 154.443,252.877 159.443,249.377 160.5,240.5C 160.744,235.983 158.744,232.983 154.5,231.5C 153.67,225.862 153.17,220.196 153,214.5C 152.308,213.975 151.808,213.308 151.5,212.5C 153.688,209.705 154.021,206.705 152.5,203.5C 152.5,202.833 152.833,202.5 153.5,202.5 Z"/></g>
<g><path style="opacity:1" fill="#595959" d="M 152.5,278.5 C 150.833,278.5 149.167,278.5 147.5,278.5C 145.583,274.608 146.417,271.608 150,269.5C 153.583,271.608 154.417,274.608 152.5,278.5 Z"/></g>
<g><path style="opacity:1" fill="#fafafa" d="M 145.5,202.5 C 146.492,202.328 147.158,202.662 147.5,203.5C 145.979,206.705 146.312,209.705 148.5,212.5C 148.192,213.308 147.692,213.975 147,214.5C 146.667,219.833 146.333,225.167 146,230.5C 143.167,232 141,234.167 139.5,237C 134.167,237.333 128.833,237.667 123.5,238C 122.975,238.692 122.308,239.192 121.5,239.5C 118.133,236.843 114.8,236.843 111.5,239.5C 111.154,230.201 114.154,222.201 120.5,215.5C 121.167,216.167 121.833,216.833 122.5,217.5C 123.359,219.546 124.859,220.879 127,221.5C 131.587,219.019 131.421,216.352 126.5,213.5C 125.833,212.833 125.167,212.167 124.5,211.5C 130.389,206.059 137.389,203.059 145.5,202.5 Z"/></g>
<g><path style="opacity:1" fill="#a0a0a0" d="M 145.5,202.5 C 148.167,201.167 150.833,201.167 153.5,202.5C 152.833,202.5 152.5,202.833 152.5,203.5C 150.833,203.5 149.167,203.5 147.5,203.5C 147.158,202.662 146.492,202.328 145.5,202.5 Z"/></g>
<g><path style="opacity:1" fill="#c3c3c3" d="M 164.5,299.5 C 160.797,301.055 156.797,301.722 152.5,301.5C 149.314,301.498 146.314,301.165 143.5,300.5C 150.529,300.623 157.529,300.29 164.5,299.5 Z"/></g>
<g><path style="opacity:1" fill="#747474" d="M 216.5,207.5 C 216.5,240.167 216.5,272.833 216.5,305.5C 172.5,305.5 128.5,305.5 84.5,305.5C 127.997,304.501 171.663,304.168 215.5,304.5C 215.168,271.996 215.502,239.662 216.5,207.5 Z"/></g>
<g><path style="opacity:1" fill="#d6d6d6" d="M 90.5,311.5 C 183.167,311.5 275.833,311.5 368.5,311.5C 368.5,313.5 368.5,315.5 368.5,317.5C 275.833,317.5 183.167,317.5 90.5,317.5C 90.5,315.5 90.5,313.5 90.5,311.5 Z"/></g>
</svg>
